<?xml version="1.0" standalone="no"?>
<!DOCTYPE svg PUBLIC "-//W3C//DTD SVG 20010904//EN"
 "http://www.w3.org/TR/2001/REC-SVG-20010904/DTD/svg10.dtd">
<svg version="1.0" xmlns="http://www.w3.org/2000/svg"
 width="500.000000pt" height="500.000000pt" viewBox="0 0 500.000000 500.000000"
 preserveAspectRatio="xMidYMid meet">

<g transform="translate(0.000000,500.000000) scale(0.100000,-0.100000)"
fill="#000000" stroke="none">
<path d="M2430 4898 c-25 -22 -164 -156 -310 -298 -146 -141 -286 -275 -311
-298 l-46 -42 -507 0 -506 0 0 -495 0 -494 -59 -68 c-32 -38 -94 -106 -137
-154 -83 -89 -170 -185 -372 -407 l-121 -134 56 -76 c31 -43 72 -97 90 -122
57 -74 411 -550 469 -629 l54 -74 0 -148 c0 -163 20 -752 25 -758 7 -6 99 -9
490 -15 425 -7 519 -12 538 -30 7 -6 111 -106 232 -221 121 -116 273 -261 338
-323 78 -74 126 -112 140 -112 14 0 54 31 107 83 110 106 479 457 500 477 10
8 40 37 67 63 l50 49 515 -2 515 -1 7 497 c5 360 10 502 19 519 7 12 61 90
120 171 60 82 182 253 273 379 91 127 181 251 200 277 24 32 33 52 27 61 -4 8
-149 159 -322 335 -172 176 -319 329 -326 339 -13 18 -21 182 -41 793 -4 107
-9 198 -13 202 -3 3 -217 9 -476 13 -258 4 -480 9 -493 10 -25 3 -37 13 -197
165 -325 309 -540 510 -546 510 -2 0 -24 -19 -49 -42z m969 -929 c166 6 353
11 415 11 l113 0 7 -426 c5 -337 9 -430 20 -446 8 -11 86 -95 173 -186 254
-266 383 -405 383 -414 0 -8 -167 -232 -493 -665 l-77 -101 0 -379 c0 -226 -4
-383 -9 -388 -10 -10 -219 -6 -656 10 l-180 6 -305 -305 c-167 -168 -307 -306
-310 -306 -4 0 -143 138 -311 306 l-304 305 -60 -5 c-33 -3 -184 -8 -335 -11
-151 -3 -307 -8 -347 -11 -63 -5 -72 -3 -76 13 -3 10 -5 190 -6 400 l0 383
-274 362 c-151 200 -280 373 -288 386 -13 21 -3 33 274 310 l287 287 0 428 c0
377 2 428 16 434 8 3 200 1 427 -5 l412 -11 94 97 c52 53 187 191 299 305
l206 208 301 -301 302 -301 302 10z"/>
<path d="M2285 3916 c-277 -47 -494 -143 -707 -315 -369 -297 -576 -789 -529
-1257 28 -275 119 -515 279 -737 70 -97 242 -264 344 -335 367 -252 836 -323
1263 -192 101 32 284 121 384 187 98 66 284 245 358 347 140 190 248 468 268
686 3 36 8 90 11 120 7 76 -12 277 -37 380 -112 474 -446 860 -896 1033 -161
63 -304 89 -493 93 -106 2 -194 -2 -245 -10z m389 -71 c3 -10 -1 -18 -12 -21
-9 -3 -24 -9 -33 -14 -9 -4 -22 -5 -29 0 -17 11 -4 44 15 36 8 -3 17 -1 20 4
9 15 32 12 39 -5z m-286 -47 c11 -13 24 -35 27 -50 9 -37 40 -37 59 1 27 51
74 47 61 -5 -4 -18 1 -23 26 -28 17 -3 44 -6 60 -6 26 0 28 2 20 23 -10 27 1
53 18 43 6 -4 11 -20 11 -36 0 -25 5 -31 38 -39 64 -18 82 -13 40 12 -42 25
-44 40 -5 45 21 3 37 -8 80 -52 58 -60 78 -66 128 -40 40 20 59 12 59 -24 0
-32 22 -57 43 -49 12 5 47 99 47 129 0 9 6 21 14 27 12 10 17 8 25 -8 11 -19
6 -51 -8 -51 -5 0 -16 -28 -26 -62 -26 -89 -34 -96 -87 -73 -24 10 -52 27 -64
37 -11 10 -36 18 -55 18 -19 0 -39 4 -45 9 -11 10 -195 47 -271 55 l-52 5 6
-33 c4 -25 1 -35 -12 -40 -24 -9 -63 18 -71 49 -3 14 -7 25 -9 25 -1 0 -26 -5
-55 -10 -38 -7 -57 -7 -66 1 -20 16 -17 41 4 38 74 -7 92 13 47 55 -24 22 -34
56 -17 56 5 0 18 -10 30 -22z m-144 4 c6 -11 -4 -24 -31 -39 -33 -19 -45 -16
-41 10 2 12 8 22 15 22 6 0 15 3 19 8 10 9 32 9 38 -1z m-216 -72 c38 -69 54
-117 42 -125 -10 -6 -90 140 -90 166 0 33 14 21 48 -41z m-107 10 c5 0 9 -10
9 -22 1 -40 25 -116 43 -136 9 -10 17 -24 17 -30 0 -12 -57 -52 -72 -52 -11 0
-10 48 2 70 9 17 5 22 -28 39 -22 11 -48 17 -60 14 -14 -3 -29 3 -47 21 -51
51 -2 56 83 9 24 -14 46 -23 48 -20 8 8 -7 56 -22 68 -20 16 -19 53 2 45 9 -3
20 -6 25 -6z m349 -10 c11 -11 20 -28 20 -38 0 -27 -34 -54 -62 -50 -19 2 -24
10 -26 42 -2 21 -1 44 2 52 8 20 43 17 66 -6z m940 -39 c0 -6 -15 -43 -33 -83
-31 -68 -61 -107 -72 -96 -5 5 68 168 81 181 10 10 24 9 24 -2z m-455 -81 c0
-22 -29 -18 -33 3 -3 14 1 18 15 15 10 -2 18 -10 18 -18z m630 -30 c3 -5 15
-10 26 -10 12 0 19 -7 19 -20 0 -20 -24 -28 -35 -10 -3 5 -12 7 -19 4 -17 -7
-30 12 -22 31 6 17 22 20 31 5z m-1565 -57 c11 -14 19 -30 18 -35 -2 -4 -39
-37 -83 -73 -67 -56 -85 -65 -110 -62 -29 5 -30 4 -30 -39 0 -34 -7 -50 -30
-74 -15 -16 -30 -28 -32 -26 -2 2 5 31 16 64 12 34 18 68 15 76 -8 21 -80 21
-100 1 -19 -19 -58 -19 -73 -1 -10 12 -7 18 13 32 20 12 41 15 88 12 l61 -5
-38 32 c-65 55 -35 59 39 5 l68 -50 29 21 c32 23 35 29 17 47 -16 16 -3 26 18
14 29 -16 57 4 50 34 -6 23 -5 24 15 14 25 -14 41 -3 16 11 -21 12 -22 29 -3
29 8 0 24 -12 36 -27z m863 12 c671 -117 1068 -828 817 -1461 -149 -375 -504
-639 -904 -673 -326 -27 -628 82 -856 310 -433 434 -421 1130 26 1548 248 232
587 334 917 276z m-718 -45 c-3 -4 1 -10 7 -13 10 -3 10 -7 -1 -20 -10 -13
-17 -15 -27 -6 -17 14 -18 31 -2 47 12 12 32 6 23 -8z m1396 -33 l-31 -54 28
-26 c33 -32 42 -34 35 -8 -8 30 25 34 53 6 27 -27 31 -53 9 -61 -8 -4 -15 -12
-15 -18 0 -21 55 -66 81 -66 14 0 33 -6 43 -13 17 -13 17 -15 2 -45 -28 -55
-76 -61 -76 -11 0 10 -20 37 -45 60 -25 24 -48 53 -51 66 -4 13 -10 23 -15 23
-4 0 -24 14 -44 32 -28 24 -36 38 -33 59 2 19 -5 33 -21 46 -36 30 -22 51 36
56 26 2 54 4 61 5 9 1 2 -18 -17 -51z m-1850 -237 c26 -14 24 -32 -6 -60 -14
-13 -25 -30 -25 -38 0 -8 -19 -48 -42 -89 -33 -57 -49 -76 -69 -80 -20 -4 -28
-13 -33 -35 -9 -43 -47 -36 -60 12 -5 19 -16 39 -23 43 -28 17 -10 27 49 24
60 -2 62 -1 85 32 29 43 29 51 -2 51 -14 0 -28 7 -32 15 -9 24 3 28 38 16 43
-15 51 -2 43 67 l-6 52 32 0 c17 0 40 -5 51 -10z m2199 -23 c0 -7 -27 -30 -60
-51 -33 -21 -63 -42 -65 -46 -6 -10 43 -117 57 -126 7 -5 8 8 3 41 l-7 49 24
-16 c14 -9 24 -27 26 -44 3 -38 -21 -127 -36 -132 -6 -2 -34 42 -64 103 -39
82 -49 111 -41 124 5 9 35 33 66 54 32 21 57 42 57 47 0 6 9 10 20 10 11 0 20
-6 20 -13z m-2215 -176 c1 -37 -21 -63 -35 -41 -5 8 -5 19 0 26 6 6 7 14 4 17
-4 3 -4 13 0 22 10 27 31 11 31 -24z m-286 -13 c-2 -13 0 -28 4 -34 8 -13 -20
-40 -31 -30 -8 8 -12 67 -5 79 10 17 34 6 32 -15z m2366 -54 c0 -10 -8 -20
-17 -22 -18 -3 -26 27 -11 42 12 11 28 0 28 -20z m-2265 -638 c6 -8 10 -25 8
-37 -4 -26 -35 -49 -46 -33 -4 6 -14 3 -26 -9 -19 -20 -18 -20 10 -13 16 4 37
9 46 12 21 6 36 -21 44 -80 6 -38 4 -45 -12 -48 -16 -4 -15 -6 7 -16 15 -6 29
-18 32 -26 5 -14 0 -15 -31 -10 -32 5 -41 2 -66 -25 -17 -17 -33 -31 -38 -31
-16 0 -8 34 15 58 l22 24 -35 -4 c-25 -2 -35 1 -35 12 -1 8 -6 34 -13 58 -14
46 -10 62 16 63 12 0 11 3 -6 9 -12 5 -27 21 -34 35 -10 22 -9 29 10 48 17 17
24 19 34 9 9 -9 9 -15 0 -24 -15 -15 -16 -28 -2 -28 6 0 15 12 21 27 16 44 55
57 79 29z m2480 3 c33 -7 50 -16 50 -26 0 -10 -9 -14 -32 -11 -25 2 -34 -1
-36 -14 -3 -13 3 -18 22 -18 14 0 27 -3 29 -8 11 -16 -7 -65 -24 -69 -21 -6
-25 -33 -7 -51 8 -8 9 -15 2 -22 -14 -14 -134 60 -134 82 0 14 9 18 43 19 23
1 56 5 72 8 26 6 21 9 -35 17 -47 6 -65 13 -65 24 0 10 9 14 27 13 29 -2 48
25 23 32 -8 3 -22 7 -31 10 -22 7 -7 25 21 25 13 0 47 -5 75 -11z m-42 -219
c36 -22 39 -41 16 -100 -10 -26 -23 -40 -34 -40 -22 0 -34 -28 -20 -45 6 -8 6
-20 -3 -38 -13 -30 -19 -32 -49 -16 -16 8 -22 8 -29 -2 -6 -10 0 -18 16 -27
25 -12 35 -42 15 -42 -5 0 -10 -7 -10 -15 0 -9 -9 -15 -24 -15 -26 0 -40 -22
-24 -38 11 -11 3 -32 -12 -32 -16 0 -99 110 -94 124 4 12 14 11 61 -1 30 -8
57 -12 60 -9 3 3 -15 15 -41 28 -25 12 -46 28 -46 35 0 16 15 17 41 3 15 -9
21 -7 26 6 4 10 2 19 -3 21 -28 10 -38 23 -28 33 9 9 25 5 62 -14 28 -14 53
-26 56 -26 2 0 -18 22 -46 48 -30 29 -48 54 -44 60 5 8 28 10 69 6 62 -5 62
-5 27 10 -19 8 -43 17 -54 20 -14 5 -17 12 -11 34 4 15 11 33 17 39 16 19 69
16 106 -7z m-2358 -80 c23 -23 24 -33 9 -61 -9 -17 -7 -20 8 -17 34 6 18 -26
-24 -50 -44 -24 -50 -36 -34 -62 8 -12 17 -12 65 4 86 26 99 6 40 -62 -42 -50
-36 -54 18 -11 31 25 42 29 51 20 9 -10 7 -16 -10 -30 -14 -12 -18 -22 -13
-32 7 -11 12 -11 22 -1 14 14 48 16 48 2 0 -13 -99 -90 -116 -90 -21 0 -17 23
6 38 12 7 17 18 14 27 -6 14 -9 14 -30 0 -29 -19 -44 -19 -44 0 0 8 -5 15 -10
15 -6 0 -9 15 -8 32 3 28 -1 34 -19 36 -15 2 -33 20 -50 49 l-27 46 23 18 23
19 -24 0 c-35 0 -62 33 -54 65 7 29 59 65 94 65 12 0 31 -9 42 -20z m2107
-260 c-3 -11 1 -23 7 -28 7 -4 28 -20 46 -35 24 -21 30 -31 22 -39 -9 -9 -22
-3 -52 21 -26 20 -47 30 -57 27 -13 -6 -10 -13 20 -44 20 -21 37 -48 37 -60 0
-23 -27 -42 -47 -35 -8 3 -13 -5 -13 -21 0 -16 -9 -31 -24 -41 -23 -15 -27
-15 -53 1 l-28 18 24 -26 c23 -26 21 -54 -4 -44 -7 2 -15 -5 -19 -17 -4 -17
-8 -19 -18 -9 -17 17 -33 15 -19 -2 16 -19 -4 -32 -24 -16 -10 8 -19 8 -35 -2
-17 -11 -22 -11 -30 2 -6 10 -3 18 11 28 18 13 18 14 -3 43 -20 26 -20 31 -7
45 14 13 18 13 41 -6 l26 -20 -11 30 c-10 26 -8 32 10 50 30 27 37 26 77 -17
26 -29 38 -35 46 -27 9 9 3 22 -24 52 -20 22 -36 45 -36 51 0 22 29 10 58 -25
24 -29 31 -32 36 -19 3 9 10 13 16 10 22 -14 8 11 -26 46 l-36 37 31 46 c33
48 68 63 58 26z m-1838 -136 c54 -56 55 -59 35 -121 -4 -11 2 -8 16 10 25 31
55 37 46 9 -5 -15 -1 -19 25 -19 33 0 62 -26 57 -52 -5 -23 -29 -25 -35 -2 -3
12 -13 21 -24 21 -23 0 -52 -42 -43 -64 8 -22 24 -20 24 2 0 28 10 33 35 16
16 -11 25 -12 30 -4 4 6 18 16 32 21 31 12 73 -11 73 -41 0 -28 -17 -34 -30
-10 -14 27 -36 25 -56 -5 -18 -28 -13 -55 12 -55 13 0 14 3 5 13 -6 8 -8 17
-4 20 12 13 42 7 51 -10 8 -14 12 -12 26 15 9 18 23 32 31 32 21 0 19 -6 -18
-75 -31 -58 -53 -73 -51 -36 0 16 -3 17 -18 7 -29 -18 -72 11 -79 54 -4 19 -7
30 -8 23 -2 -21 -41 -26 -67 -8 -21 14 -25 23 -22 51 4 31 3 32 -14 17 -29
-26 -48 -10 -38 32 l8 37 -24 -23 c-17 -16 -27 -20 -35 -12 -7 7 -6 15 3 24
39 42 48 60 15 30 -27 -26 -40 -32 -48 -24 -8 8 0 24 31 57 34 37 39 47 26 52
-10 4 -28 -7 -51 -31 -24 -24 -42 -35 -52 -30 -13 5 -9 14 25 48 32 32 40 47
36 65 -11 38 18 26 75 -34z m1505 -219 c27 -45 39 -54 51 -35 9 15 35 12 35
-4 0 -16 -37 -46 -57 -46 -14 0 -83 98 -83 117 0 28 30 11 54 -32z m-34 -40
c55 -55 55 -66 0 -62 -19 2 -26 -3 -28 -20 -2 -13 -9 -23 -17 -23 -15 0 -22
22 -31 103 -9 74 4 75 76 2z m-122 -53 c12 -32 22 -63 22 -70 0 -18 -18 -15
-29 6 -9 14 -10 13 -11 -10 0 -31 -17 -36 -35 -12 -10 15 -12 14 -11 -7 1 -13
-3 -24 -9 -24 -5 0 -15 -4 -22 -8 -6 -4 -18 0 -26 8 -18 17 -47 10 -47 -11 0
-15 -25 -27 -78 -37 -28 -6 -34 -3 -42 16 -5 12 -9 17 -9 10 -2 -36 -75 -59
-87 -28 -4 8 -10 15 -15 15 -4 0 -6 -7 -2 -16 4 -12 1 -15 -13 -12 -16 3 -19
14 -22 76 -3 66 6 90 23 62 4 -6 12 -4 21 5 27 27 74 12 74 -23 0 -10 -7 -12
-25 -8 -14 4 -25 2 -25 -4 0 -5 9 -10 19 -10 11 0 27 -8 37 -17 16 -16 17 -15
10 30 -6 38 -4 47 8 47 15 0 20 -11 31 -73 5 -34 9 -38 28 -33 12 3 25 6 30 6
4 0 7 29 7 65 0 55 3 65 18 65 10 0 29 -19 45 -46 15 -26 30 -45 32 -42 2 2
-4 25 -13 51 -15 42 -15 49 -2 57 11 7 21 3 37 -18 l23 -27 0 38 c0 29 4 37
18 37 12 0 24 -18 40 -58z m-938 -9 c0 -96 -19 -133 -40 -78 -10 27 -29 32
-48 13 -8 -8 -15 -9 -22 -2 -13 13 69 123 93 124 14 0 17 -9 17 -57z m115 7
c10 -11 15 -26 11 -36 -6 -15 -8 -15 -27 2 -27 24 -54 8 -54 -32 0 -21 6 -30
20 -33 17 -3 18 -1 6 13 -18 22 -3 37 27 29 20 -5 22 -10 17 -32 -9 -35 -24
-51 -48 -51 -33 0 -57 29 -57 70 0 72 64 115 105 70z m89 -32 c3 -13 8 -45 12
-73 l7 -50 9 59 c4 33 12 64 17 69 18 18 41 -1 42 -35 l1 -33 14 33 c10 22 20
32 32 30 14 -3 17 -13 15 -58 l-3 -55 21 58 c12 32 27 57 34 57 13 0 55 -112
55 -146 0 -20 -13 -17 -33 6 -21 25 -33 25 -47 1 -11 -22 -61 -23 -68 -1 -4
10 -6 10 -12 0 -5 -8 -15 -10 -26 -5 -11 4 -33 7 -50 6 -24 -2 -33 2 -37 18
-6 23 -43 29 -49 9 -2 -6 -11 -9 -20 -6 -14 6 -12 14 12 61 15 30 31 60 34 66
12 19 35 12 40 -11z"/>
<path d="M2482 3659 c2 -7 10 -15 17 -17 8 -3 12 1 9 9 -2 7 -10 15 -17 17 -8
3 -12 -1 -9 -9z"/>
<path d="M2228 3688 c9 -9 15 -9 24 0 9 9 7 12 -12 12 -19 0 -21 -3 -12 -12z"/>
<path d="M2132 2888 c-24 -5 -42 -11 -40 -12 1 -2 62 -1 133 2 79 3 120 8 105
13 -35 10 -147 9 -198 -3z"/>
<path d="M2703 2887 c-28 -10 -11 -12 108 -12 118 0 136 2 112 12 -36 15 -178
15 -220 0z"/>
<path d="M2414 2861 c3 -3 25 -17 50 -29 l46 -23 -4 -315 c-2 -173 -6 -317 -9
-320 -2 -3 -31 11 -64 30 -33 19 -93 44 -134 56 -86 24 -216 27 -257 6 -15 -7
-47 -16 -71 -20 -24 -4 -53 -13 -64 -21 -12 -8 -25 -15 -29 -15 -11 0 -10 58
1 64 5 3 12 35 16 72 4 36 15 84 25 107 10 23 21 67 24 97 4 39 3 48 -3 30
-18 -51 -61 -216 -61 -236 0 -12 -7 -38 -15 -57 -8 -20 -15 -54 -15 -75 0 -25
-8 -49 -21 -67 -18 -22 -20 -29 -8 -36 22 -14 27 -11 21 16 -9 49 7 42 568
-234 87 -43 135 -46 196 -13 126 68 560 272 573 270 9 -2 16 -9 16 -15 0 -10
-331 -181 -535 -277 -69 -33 -92 -48 -83 -56 4 -5 37 -23 73 -40 147 -71 154
-76 130 -105 -10 -12 -10 -15 2 -15 24 0 47 61 64 170 9 58 21 111 27 118 5 6
88 51 184 98 95 48 176 90 178 94 2 4 -12 26 -31 49 -27 31 -38 54 -43 94 -4
28 -13 61 -20 72 l-13 20 7 -20 c4 -11 9 -41 12 -67 5 -38 3 -48 -9 -48 -8 0
-18 4 -23 9 -25 23 -135 44 -235 44 -82 1 -119 -4 -168 -21 -64 -22 -114 -46
-145 -71 -34 -28 -33 -34 -29 371 l2 258 58 29 c31 17 51 30 44 31 -7 0 -30
-9 -52 -20 -42 -22 -90 -26 -106 -10 -12 12 -76 32 -70 21z m-105 -750 c40
-12 77 -34 113 -65 29 -25 56 -46 61 -46 4 0 12 11 17 25 12 31 17 31 51 -1
l28 -27 51 46 c62 55 147 87 236 87 60 0 114 -15 114 -31 0 -6 -237 -126 -403
-204 l-59 -27 -56 27 c-52 25 -269 133 -358 178 -41 21 -36 34 18 47 58 14
124 11 187 -9z"/>
<path d="M3003 2850 c42 -23 47 -24 47 -11 0 5 -14 14 -31 20 -50 17 -57 13
-16 -9z"/>
<path d="M2008 2833 c-19 -22 -35 -89 -19 -79 6 4 11 18 11 31 0 13 10 33 22
45 12 11 17 20 11 20 -5 0 -17 -8 -25 -17z"/>
<path d="M2735 2830 c-13 -6 -15 -9 -5 -9 8 0 22 4 30 9 18 12 2 12 -25 0z"/>
<path d="M2168 2823 c7 -3 16 -2 19 1 4 3 -2 6 -13 5 -11 0 -14 -3 -6 -6z"/>
<path d="M2318 2823 c7 -3 16 -2 19 1 4 3 -2 6 -13 5 -11 0 -14 -3 -6 -6z"/>
<path d="M2878 2823 c7 -3 16 -2 19 1 4 3 -2 6 -13 5 -11 0 -14 -3 -6 -6z"/>
<path d="M2034 2774 c-18 -14 -18 -14 6 -3 31 14 36 19 24 19 -6 0 -19 -7 -30
-16z"/>
<path d="M2594 2774 c-18 -14 -18 -14 6 -3 31 14 36 19 24 19 -6 0 -19 -7 -30
-16z"/>
<path d="M2441 2777 c2 -1 13 -9 24 -17 19 -14 19 -14 6 3 -7 9 -18 17 -24 17
-6 0 -8 -1 -6 -3z"/>
<path d="M3016 2765 c10 -8 23 -15 28 -15 6 0 1 7 -10 15 -10 8 -23 15 -28 15
-6 0 -1 -7 10 -15z"/>
<path d="M2168 2743 c6 -2 18 -2 25 0 6 3 1 5 -13 5 -14 0 -19 -2 -12 -5z"/>
<path d="M2310 2740 c8 -5 22 -9 30 -9 10 0 8 3 -5 9 -27 12 -43 12 -25 0z"/>
<path d="M2880 2736 c0 -2 9 -6 20 -9 11 -3 20 -1 20 4 0 5 -9 9 -20 9 -11 0
-20 -2 -20 -4z"/>
<path d="M3071 2724 c0 -11 3 -14 6 -6 3 7 2 16 -1 19 -3 4 -6 -2 -5 -13z"/>
<path d="M2030 2695 c-14 -8 -20 -14 -14 -15 5 0 19 7 30 15 24 18 16 19 -16
0z"/>
<path d="M2430 2696 c0 -3 9 -10 20 -16 11 -6 20 -8 20 -6 0 3 -9 10 -20 16
-11 6 -20 8 -20 6z"/>
<path d="M2600 2690 c-8 -5 -12 -11 -10 -14 3 -2 14 2 24 10 22 15 10 19 -14
4z"/>
<path d="M3010 2685 c0 -2 10 -10 23 -16 20 -11 21 -11 8 4 -13 16 -31 23 -31
12z"/>
<path d="M2140 2660 c-18 -12 -2 -12 25 0 13 6 15 9 5 9 -8 0 -22 -4 -30 -9z"/>
<path d="M2740 2660 c-18 -12 -2 -12 25 0 13 6 15 9 5 9 -8 0 -22 -4 -30 -9z"/>
<path d="M2298 2653 c7 -3 16 -2 19 1 4 3 -2 6 -13 5 -11 0 -14 -3 -6 -6z"/>
<path d="M2898 2653 c6 -2 18 -2 25 0 6 3 1 5 -13 5 -14 0 -19 -2 -12 -5z"/>
<path d="M3095 2575 c3 -33 10 -64 15 -69 14 -14 12 8 -5 74 l-15 55 5 -60z"/>
<path d="M2004 2604 c-18 -14 -18 -15 4 -4 12 6 22 13 22 15 0 8 -5 6 -26 -11z"/>
<path d="M2610 2610 c-8 -5 -10 -10 -5 -10 6 0 17 5 25 10 8 5 11 10 5 10 -5
0 -17 -5 -25 -10z"/>
<path d="M2430 2595 c7 -8 17 -15 22 -15 6 0 5 7 -2 15 -7 8 -17 15 -22 15 -6
0 -5 -7 2 -15z"/>
<path d="M3020 2605 c0 -2 10 -10 23 -16 20 -11 21 -11 8 4 -13 16 -31 23 -31
12z"/>
<path d="M2126 2571 c-3 -4 6 -6 19 -3 14 2 25 6 25 8 0 8 -39 4 -44 -5z"/>
<path d="M2288 2563 c7 -3 16 -2 19 1 4 3 -2 6 -13 5 -11 0 -14 -3 -6 -6z"/>
<path d="M2778 2563 c7 -3 16 -2 19 1 4 3 -2 6 -13 5 -11 0 -14 -3 -6 -6z"/>
<path d="M2928 2553 c7 -3 16 -2 19 1 4 3 -2 6 -13 5 -11 0 -14 -3 -6 -6z"/>
<path d="M1999 2519 l-24 -20 28 17 c15 9 27 18 27 20 0 8 -8 4 -31 -17z"/>
<path d="M2630 2509 c-22 -18 -22 -19 -3 -10 12 6 25 16 28 21 9 15 3 12 -25
-11z"/>
<path d="M2416 2505 c10 -8 24 -14 29 -14 6 0 1 6 -9 14 -11 8 -24 15 -30 15
-5 0 -1 -7 10 -15z"/>
<path d="M3040 2505 c0 -2 10 -10 23 -16 20 -11 21 -11 8 4 -13 16 -31 23 -31
12z"/>
<path d="M2265 2470 c28 -12 37 -12 30 0 -3 6 -16 10 -28 9 -21 0 -21 -1 -2
-9z"/>
<path d="M2773 2473 c9 -2 23 -2 30 0 6 3 -1 5 -18 5 -16 0 -22 -2 -12 -5z"/>
<path d="M2910 2470 c8 -5 22 -10 30 -10 13 0 13 1 0 10 -8 5 -22 10 -30 10
-13 0 -13 -1 0 -10z"/>
<path d="M1974 2424 c-18 -14 -18 -14 6 -3 31 14 36 19 24 19 -6 0 -19 -7 -30
-16z"/>
<path d="M2636 2425 c-11 -8 -16 -15 -10 -15 5 0 18 7 28 15 11 8 16 15 10 15
-5 0 -18 -7 -28 -15z"/>
<path d="M2394 2415 c11 -8 24 -15 30 -15 5 0 1 7 -10 15 -10 8 -23 14 -29 14
-5 0 -1 -6 9 -14z"/>
<path d="M3057 2409 c12 -12 25 -20 28 -17 3 3 -7 13 -22 23 l-28 17 22 -23z"/>
<path d="M2100 2400 c-13 -9 -13 -10 0 -10 8 0 22 5 30 10 13 9 13 10 0 10 -8
0 -22 -5 -30 -10z"/>
<path d="M2240 2396 c0 -2 9 -6 20 -9 11 -3 20 -1 20 4 0 5 -9 9 -20 9 -11 0
-20 -2 -20 -4z"/>
<path d="M2783 2393 c9 -2 23 -2 30 0 6 3 -1 5 -18 5 -16 0 -22 -2 -12 -5z"/>
<path d="M2920 2390 c8 -5 22 -10 30 -10 13 0 13 1 0 10 -8 5 -22 10 -30 10
-13 0 -13 -1 0 -10z"/>
<path d="M1969 2349 c-23 -19 -23 -20 -2 -10 12 6 25 16 28 21 10 16 -1 12
-26 -11z"/>
<path d="M2644 2345 c-10 -8 -14 -14 -9 -14 6 0 19 6 29 14 11 8 15 15 10 15
-6 0 -19 -7 -30 -15z"/>
<path d="M2370 2345 c0 -2 10 -10 23 -16 20 -11 21 -11 8 4 -13 16 -31 23 -31
12z"/>
<path d="M3050 2343 c0 -5 9 -14 20 -21 11 -7 20 -8 20 -2 0 5 -9 14 -20 20
-11 6 -20 7 -20 3z"/>
<path d="M1895 2072 c17 -10 73 -40 125 -66 52 -27 98 -51 102 -55 4 -3 21
-58 38 -121 31 -113 58 -173 83 -183 14 -5 103 32 174 72 73 42 40 34 -58 -14
-104 -50 -119 -53 -119 -27 0 13 24 30 83 59 94 47 115 64 94 82 -8 6 -83 46
-168 89 -85 43 -163 84 -174 90 -104 58 -260 122 -180 74z"/>
<path d="M2484 1765 c-24 -18 -7 -19 26 0 16 9 19 14 9 15 -8 0 -24 -7 -35
-15z"/>
<path d="M2725 1670 c3 -5 11 -10 16 -10 6 0 7 5 4 10 -3 6 -11 10 -16 10 -6
0 -7 -4 -4 -10z"/>
<path d="M1270 2279 c0 -5 5 -7 10 -4 6 3 10 8 10 11 0 2 -4 4 -10 4 -5 0 -10
-5 -10 -11z"/>
<path d="M1289 2195 c-1 -5 0 -20 1 -32 2 -29 -30 -31 -37 -3 -9 35 -32 24
-30 -15 2 -30 5 -34 22 -28 52 15 65 24 65 40 0 20 -19 54 -21 38z"/>
<path d="M3667 2083 c-13 -13 -7 -21 24 -32 42 -15 49 -14 49 4 0 21 -58 44
-73 28z"/>
<path d="M1300 1985 c-19 -23 -5 -48 22 -39 31 9 48 24 48 40 0 19 -54 18 -70
-1z"/>
<path d="M2600 1208 c0 -16 5 -28 13 -28 6 0 22 -3 35 -6 13 -4 22 -2 22 5 0
6 -11 13 -25 17 -14 3 -30 14 -35 23 -8 13 -9 11 -10 -11z"/>
</g>
</svg>
